<svg xmlns="http://www.w3.org/2000/svg" xmlns:xlink="http://www.w3.org/1999/xlink" version="1.1" x="0px" y="0px" viewBox="0 0 100 125" enable-background="new 0 0 100 100" xml:space="preserve"><path d="
M 85.446, 52.284
c -3.901, 0, -5.223, -2.17, -5.773, -3.058
c -1.146, -1.85, -3.291, -3.455, -5.469, -4.268
c -1.049, -0.251, -2.159, 0.377, -2.165, 2.342
v 24.737
h -0.001
v 0.001
H 46.287
c -1.978, 0.002, -2.604, 1.122, -2.347, 2.177
c 0.815, 2.173, 2.418, 4.312, 4.264, 5.457
c 0.889, 0.551, 3.058, 1.872, 3.058, 5.772
c 0, 5.277, -5.934, 9.555, -13.253, 9.555
c -7.32, 0, -13.254, -4.277, -13.254, -9.555
c 0, -3.901, 2.17, -5.222, 3.059, -5.772
c 1.848, -1.147, 3.453, -3.291, 4.268, -5.469
c 0.249, -1.049, -0.379, -2.159, -2.342, -2.165
H 5
V 47.314
c 0, -1.977, 1.114, -2.606, 2.166 -2.355
c 2.178, 0.812, 4.322, 2.418, 5.47, 4.268
c 0.551, 0.888, 1.871, 3.058, 5.772, 3.058
c 5.278, 0, 9.556, -5.934, 9.556, -13.254
c 0, -7.319, -4.277, -13.253, -9.556, -13.253
c -3.901,0-5.222,2.17-5.772,3.059
c -1.146, 1.845, -3.284, 3.447, -5.458, 4.263
C 6.122, 33.356, 5, 32.727, 5, 30.745
V 5
h 67.038
v 0.001
L 72.039, 5
v 25.759
c 0.006, 1.97, 1.124, 2.597, 2.177, 2.34
c 2.173, -0.815, 4.312, -2.418, 5.457, -4.263
c 0.551, -0.889, 1.872, -3.059, 5.773, -3.059
c 5.276, 0, 9.554, 5.934, 9.554, 13.253
C 95, 46.351, 90.723, 52.284, 85.446, 52.284
z"/></svg>